<?xml version="1.0" encoding="UTF-8"?>
<svg id="Layer_1" xmlns="http://www.w3.org/2000/svg" version="1.1" xmlns:xlink="http://www.w3.org/1999/xlink" viewBox="0 0 291.7 52.5">
  <!-- Generator: Adobe Illustrator 29.2.1, SVG Export Plug-In . SVG Version: 2.1.0 Build 116)  -->
  <defs>
    <style>
      .st0 {
        fill: #fff;
      }
    </style>
  </defs>
  <g>
    <path class="st0" d="M74.7,17.5v-5.4c0-1.4,0-3-.1-4.7,0-1.8-.2-3.2-.3-4.2l-4.2-.6v-.2h11.4c2.2,0,3.9.4,5.2,1.3,1.3.9,2.2,1.8,2.7,2.9.5,1.1.7,2.1.7,2.9s-.2,2.1-.7,2.9c-.5.9-1.1,1.5-2,2.1-.8.5-1.6.8-2.5.9h0c.8.4,1.4.8,2,1.3.4.4.9,1,1.4,1.7.5.7,1.2,1.7,2.1,3,.9,1.3,1.5,2.3,2.1,3,.5.7,1,1.3,1.4,1.8,1,1,1.9,1.5,2.9,1.5v.2h-3c-1.7,0-3-.5-4-1.5-.4-.4-.8-.9-1.2-1.4s-1-1.4-1.8-2.6c-.8-1.2-1.5-2.2-2.1-3-.6-.8-1-1.4-1.4-1.7-.5-.5-1-.8-1.4-1-.4-.2-1-.3-1.8-.3s-1.3,0-1.7.1c0,.6-.1,1.3-.1,2.1v3.2c0,1.4.1,3.1.4,5.4l4.3.6v.2h-12.9v-.2l4.1-.6c.2-1.2.3-2.8.4-4.9.1-2.1.2-3.7.2-4.6ZM75.1,3.1v24.1h1.3V3.1h-1.3ZM78.1,9.6v2.8c0,1,0,1.9.1,2.8.5,0,1.1.1,2,.1,1.5,0,2.7-.3,3.6-.8s1.6-1.2,1.9-2c.4-.8.6-1.7.6-2.7s-.2-1.8-.6-2.7c-.4-.8-.9-1.5-1.5-2.1s-1.3-1-2-1.3c-.7-.3-1.5-.5-2.2-.5s-1.2,0-1.6.1c-.1.7-.2,1.6-.3,2.9,0,1.3-.1,2.3-.1,3.1ZM79.9,2.8v.2c1.6,0,2.9.4,4,1.2,1.1.7,1.8,1.6,2.3,2.7.5,1.1.7,2.1.7,3.2,0,2.3-1,4-3,5h.1c1.2-.2,2.2-.9,2.9-1.9.8-1,1.2-2.2,1.2-3.5s-.2-2-.6-2.9c-.4-.9-1-1.6-1.7-2.2-.7-.6-1.5-1-2.4-1.3-.9-.3-1.8-.5-2.7-.5h-.9ZM84.4,18.2l3.8,5.5c.9,1.3,1.7,2.2,2.4,2.8.7.6,1.5.8,2.5.8v-.2c-.9-.3-2.1-1.4-3.5-3.5l-3-4.3c-.6-.9-1.3-1.7-1.8-2.2-.6-.5-1.3-.8-2.1-1h0c.6.6,1.3,1.2,1.8,2.1Z"/>
    <path class="st0" d="M97.1,2.6v-.2h18.5l.4,5.4h-.3l-1.2-4.2c-1,0-2.1-.1-3.3-.1-2.2,0-4,.2-5.4.5-.2,1.9-.3,4-.3,6.4s0,2.7.1,3.7c1.8.1,3,.2,3.5.2,1.3,0,2.7,0,4-.2l.8-3h.3v7.4h-.3l-.8-3.1c-1-.1-2.1-.2-3.3-.2s-2.9,0-4.2.2c-.2,1.3-.2,2.7-.1,3.9,0,1.6,0,3,0,4.1s0,2,.2,2.8c1.4.4,3.3.6,5.6.6s2.4,0,3.3-.2l1.4-4.2h.2l-.4,5.4h-18.7v-.2l4.1-.6c0-.5.2-1.2.3-2.2,0-1,.1-2.1.2-3.3,0-1.2,0-2.2.1-3,0-.8,0-1.5,0-2.1v-4.4c0-.6,0-1.3,0-2.4,0-1,0-2.1-.2-3.2,0-1.1-.2-2.2-.3-3.3l-4.3-.6ZM102.4,3.1v24.1h1.2V3.1h-1.2Z"/>
    <path class="st0" d="M118.5,21.8l1.3,4.3c.7.3,1.4.5,2.3.7.9.2,1.7.3,2.3.3.9,0,1.7-.1,2.4-.5.7-.3,1.3-.7,1.8-1.1.5-.5.8-1,1-1.6.2-.6.4-1.2.4-1.7,0-1.1-.4-2.1-1.2-2.9-.8-.8-2.1-1.8-3.9-3-1.8-1.2-3.1-2.3-4-3.1-.7-.7-1.2-1.5-1.6-2.2-.3-.7-.5-1.6-.5-2.5s.3-2,.8-3c.5-1,1.4-1.8,2.5-2.5,1.1-.7,2.5-1,4.2-1s1.5,0,2.4.1c.8,0,1.4.1,1.8.1.3,0,.5,0,.8,0,.2,0,.4,0,.6,0,.1,0,.3,0,.5,0v5.9c.1,0-.1,0-.1,0l-1.1-4c-1.6-.7-3-1.1-4.2-1.1s-1.9.2-2.7.6-1.4.9-1.8,1.5-.7,1.4-.7,2.2.3,1.6.9,2.4c.6.7,1.4,1.4,2.4,2.1,1,.7,2.1,1.4,3.3,2.2,1.2.8,2.1,1.5,2.8,2.2,1.4,1.4,2.1,3,2.1,4.8s-.3,2.1-.8,3.2c-.5,1.1-1.4,2-2.7,2.8-1.3.8-2.9,1.1-4.9,1.1s-1.6,0-2.6-.1c-1,0-1.8-.1-2.2-.1s-.4,0-.5,0-.3,0-.6,0c-.3,0-.4,0-.5,0l-.3-6.1h.2ZM127,2.5h-.6c-1.3,0-2.4.3-3.5.8-1.1.5-1.9,1.2-2.6,2.2-.6.9-.9,2-.9,3.2s.6,2.8,1.9,4.1c.6.5,1.1,1,1.6,1.4.5.4,1.2.9,2.2,1.6s1.8,1.2,2.4,1.7c.6.4,1.1.8,1.5,1.2,1,1,1.6,2.2,1.6,3.5s-.2,1.7-.7,2.5c-.5.8-1.2,1.5-2.1,2-.9.5-2,.8-3.2.8v.2c1.4,0,2.7-.2,3.8-.7,1.1-.5,1.9-1.3,2.5-2.2s.9-1.8.9-2.8-.1-1.6-.4-2.2c-.3-.7-.8-1.4-1.5-2.1-.4-.4-1.1-1-2.2-1.7-1.1-.7-2.1-1.5-3.2-2.2s-1.9-1.3-2.4-1.8c-1.2-1.2-1.8-2.5-1.8-4s.6-2.5,1.7-3.6c1.1-1.1,2.8-1.7,5-1.7v-.2Z"/>
    <path class="st0" d="M134.7,2.4h12c1.9,0,3.4.2,4.5.5s2,.9,2.7,1.6c.6.6,1,1.3,1.4,2.2.3.9.5,1.8.5,2.7,0,1.4-.4,2.6-1.1,3.8-.7,1.2-1.7,2.1-3,2.8-1.3.7-2.8,1.1-4.4,1.1s-2.5-.1-3.6-.3v-.2c.2,0,.6,0,1.1,0,1.3,0,2.5-.2,3.6-.7,1.1-.4,2-1.1,2.7-2.1.7-.9,1-2.1,1-3.5s-.5-3.2-1.5-4.7c-1-1.5-2.6-2.2-4.6-2.2s-1.8,0-2.6.3c0,.5-.2,1.6-.3,3.5,0,1.8-.1,3.1-.1,3.9v8.3c0,.3,0,1.1,0,2.4,0,1.2.1,2.3.2,3.2s.1,1.6.3,2.2l4.3.6-.2.2h-13v-.2c0,0,4.3-.6,4.3-.6.1-1,.2-2,.3-3.1,0-1.1.1-2.4.2-3.9,0-1.5,0-2.7,0-3.4v-4.2c0-1.5,0-3.1-.1-4.9,0-1.8-.2-3.2-.3-4.3l-4.3-.6v-.2ZM140,3v24.1h1.2V3h-1.2ZM147,2.8h-.6v.2c1.3,0,2.4.4,3.4,1.1,1,.7,1.7,1.6,2.2,2.6.5,1.1.7,2.2.7,3.5s-.3,2.6-.9,3.5c-.6.9-1.3,1.6-2.2,2s-1.7.7-2.5.7v.2h.3c.6,0,1.5-.2,2.5-.5,1-.4,1.9-1,2.8-2,.8-1,1.2-2.4,1.2-4.2s-.2-2.2-.7-3.3c-.5-1.1-1.2-2-2.3-2.7-1.1-.7-2.4-1.1-4.1-1.1Z"/>
    <path class="st0" d="M168.7,2.2l7.5,17.9c1,2.3,2.1,4.7,3.4,7l2.9.6v.2h-12.3v-.2l4.7-.6c-.2-1.1-.5-2.4-1-3.7-.5-1.3-1-2.5-1.6-3.5h-10.9c-.5,1.2-.8,2.1-1.1,2.9s-.6,1.5-.8,2.3c-.3.8-.4,1.5-.5,2l4.5.6v.2h-9.7v-.2l3.2-.6c.8-1.3,1.5-2.8,2.1-4.4l8-20.4h1.4ZM166.9,7c-.3.6-.7,1.5-1.2,2.7s-1,2.3-1.4,3.3-.9,2.1-1.3,3.3c-.5,1.2-.8,1.9-.9,2.3.7,0,1.5.2,2.4.2s1.8,0,2.6,0c2,0,3.7,0,5-.2-.4-1.3-1.2-3.2-2.2-5.6-1.1-2.4-2-4.4-2.9-6ZM167.1,5.6l9,21.6h1.2l-9.6-23-.6,1.5Z"/>
    <path class="st0" d="M183.1,2.6v-.2h13.1v.2l-4.3.6c-.1,1.1-.3,2.6-.4,4.5-.1,1.9-.2,3.6-.2,5v7.5c0,1.8,0,3.7.3,5.6,2,.6,4,.9,6.1.9s2,0,2.8-.2c.9-.1,1.5-.2,1.8-.3l1.8-4.7h.3l-.8,6.3h-20.6v-.2l4.1-.6c.1-.6.3-1.5.4-3s.2-2.9.2-4.4c0-1.5,0-2.6,0-3.2v-4.4c0-1,0-2.1,0-3.3,0-1.2-.1-2.3-.2-3.3,0-.9-.1-1.7-.3-2.3l-4.3-.6ZM188.3,3.1v24.1h1.2V3.1h-1.2Z"/>
    <path class="st0" d="M205.3,2.4h14.3c2.7,0,4.9.4,6.8,1.2,1.9.8,3.3,1.8,4.4,3,1.1,1.2,1.9,2.6,2.3,4s.7,2.9.7,4.4-.3,3.5-.9,5.1c-.6,1.6-1.5,2.9-2.6,4.1-1.1,1.2-2.5,2-4,2.7-1.5.6-3.2.9-5.1.9h-16v-.2l4.2-.6c.2-1,.4-2.6.5-4.9.1-2.3.2-4.1.2-5.4v-4.5c0-3.4-.2-6.4-.5-9l-4.3-.6v-.2ZM210.5,3.1v24.1h1.2V3.1h-1.2ZM213.5,11.1v10.1c0,1.5,0,3,.2,4.5.7.3,1.6.6,2.5.8.9.2,1.9.2,2.8.2s2.6-.2,3.8-.7c1.3-.5,2.4-1.2,3.4-2.2,1-1,1.8-2.2,2.4-3.7.6-1.5.9-3.2.9-5.1s-.3-3.8-1-5.2c-.6-1.5-1.5-2.7-2.7-3.6-1.1-.9-2.4-1.6-3.9-2.1-1.5-.5-3-.7-4.6-.7s-2.5.1-3.5.4c0,.4-.1,1.1-.2,1.9,0,.8-.1,1.8-.2,2.9,0,1.1,0,1.9,0,2.4ZM216.8,2.8v.2c1.7,0,3.2.1,4.5.4,1.3.3,2.5.7,3.4,1.2.9.5,1.7,1.1,2.4,1.7s1.3,1.5,1.8,2.4c.5.9.9,1.9,1.2,3s.4,2.2.4,3.5c0,2.7-.6,5-1.7,6.8s-2.6,3.2-4.3,4-3.3,1.3-4.8,1.3h-1.3v.2h1.3c2.5,0,4.7-.6,6.6-1.7,1.8-1.1,3.2-2.6,4.2-4.5.9-1.9,1.4-3.9,1.4-6.1s-.3-3.7-1-5.2c-.7-1.5-1.5-2.8-2.5-3.8-2.2-2.3-5.6-3.4-10.3-3.4h-1Z"/>
    <path class="st0" d="M250.6,2.2l7.5,17.9c1,2.3,2.1,4.7,3.4,7l2.9.6v.2h-12.3v-.2l4.7-.6c-.2-1.1-.5-2.4-1-3.7-.5-1.3-1-2.5-1.6-3.5h-10.9c-.5,1.2-.8,2.1-1.1,2.9s-.6,1.5-.8,2.3c-.3.8-.4,1.5-.5,2l4.5.6v.2h-9.7v-.2l3.2-.6c.8-1.3,1.5-2.8,2.1-4.4l8-20.4h1.4ZM248.7,7c-.3.6-.7,1.5-1.2,2.7s-1,2.3-1.4,3.3-.9,2.1-1.3,3.3c-.5,1.2-.8,1.9-.9,2.3.7,0,1.5.2,2.4.2s1.8,0,2.6,0c2,0,3.7,0,5-.2-.4-1.3-1.2-3.2-2.2-5.6-1.1-2.4-2-4.4-2.9-6ZM249,5.6l9,21.6h1.2l-9.6-23-.6,1.5Z"/>
    <path class="st0" d="M269.7,17.5v-5.4c0-1.4,0-3-.1-4.7,0-1.8-.2-3.2-.3-4.2l-4.2-.6v-.2h11.4c2.2,0,3.9.4,5.2,1.3,1.3.9,2.2,1.8,2.7,2.9.5,1.1.7,2.1.7,2.9s-.2,2.1-.7,2.9c-.5.9-1.1,1.5-2,2.1-.8.5-1.6.8-2.5.9h0c.8.4,1.4.8,2,1.3.4.4.9,1,1.4,1.7.5.7,1.2,1.7,2.1,3,.9,1.3,1.5,2.3,2.1,3,.5.7,1,1.3,1.4,1.8,1,1,1.9,1.5,2.9,1.5v.2h-3c-1.7,0-3-.5-4-1.5-.4-.4-.8-.9-1.2-1.4s-1-1.4-1.8-2.6-1.5-2.2-2.1-3c-.6-.8-1-1.4-1.4-1.7-.5-.5-1-.8-1.4-1-.4-.2-1-.3-1.8-.3s-1.3,0-1.7.1c0,.6-.1,1.3-.1,2.1v3.2c0,1.4.1,3.1.4,5.4l4.3.6v.2h-12.9v-.2l4.1-.6c.2-1.2.3-2.8.4-4.9.1-2.1.2-3.7.2-4.6ZM270.1,3.1v24.1h1.3V3.1h-1.3ZM273.1,9.6v2.8c0,1,0,1.9.1,2.8.5,0,1.1.1,2,.1,1.5,0,2.7-.3,3.6-.8s1.6-1.2,1.9-2c.4-.8.6-1.7.6-2.7s-.2-1.8-.6-2.7c-.4-.8-.9-1.5-1.5-2.1s-1.3-1-2-1.3c-.7-.3-1.5-.5-2.2-.5s-1.2,0-1.6.1c-.1.7-.2,1.6-.3,2.9,0,1.3-.1,2.3-.1,3.1ZM274.8,2.8v.2c1.6,0,2.9.4,4,1.2,1.1.7,1.8,1.6,2.3,2.7.5,1.1.7,2.1.7,3.2,0,2.3-1,4-3,5h.1c1.2-.2,2.2-.9,2.9-1.9.8-1,1.2-2.2,1.2-3.5s-.2-2-.6-2.9c-.4-.9-1-1.6-1.7-2.2-.7-.6-1.5-1-2.4-1.3-.9-.3-1.8-.5-2.7-.5h-.9ZM279.4,18.2l3.8,5.5c.9,1.3,1.7,2.2,2.4,2.8.7.6,1.5.8,2.5.8v-.2c-.9-.3-2.1-1.4-3.5-3.5l-3-4.3c-.6-.9-1.3-1.7-1.8-2.2-.6-.5-1.3-.8-2.1-1h0c.6.6,1.3,1.2,1.8,2.1Z"/>
  </g>
  <g>
    <path class="st0" d="M73.3,39.4v5.5c0,.4,0,.6.3.8.2.2.5.2.9.2h1.3v1.7h-1.6c-.9,0-1.6-.2-2.1-.6-.5-.4-.7-1.1-.7-2.1v-5.5h-1.2v-1.7h1.2v-2.4h2.1v2.4h2.4v1.7h-2.4Z"/>
    <path class="st0" d="M86.4,37.7v9.8h-2v-1.2c-.3.4-.7.7-1.3,1-.5.2-1.1.3-1.7.3s-1.5-.2-2.1-.5-1.1-.8-1.4-1.4c-.4-.6-.5-1.4-.5-2.3v-5.8h2v5.5c0,.9.2,1.6.7,2s1,.7,1.8.7,1.4-.2,1.8-.7c.4-.5.7-1.1.7-2v-5.5h2Z"/>
    <path class="st0" d="M99.8,38c.6.3,1.1.7,1.4,1.1v-1.4h2.1v10c0,.9-.2,1.7-.6,2.4-.4.7-.9,1.3-1.7,1.7-.7.4-1.6.6-2.6.6s-2.4-.3-3.3-.9c-.9-.6-1.4-1.5-1.5-2.5h2c.2.5.5.9,1,1.2s1.1.5,1.8.5,1.5-.3,2-.8c.5-.5.8-1.2.8-2.2v-1.6c-.3.5-.8.9-1.4,1.2-.6.3-1.3.5-2,.5s-1.6-.2-2.4-.7c-.7-.4-1.3-1-1.7-1.8-.4-.8-.6-1.7-.6-2.7s.2-1.9.6-2.6c.4-.8,1-1.4,1.7-1.8.7-.4,1.5-.6,2.4-.6s1.4.2,2,.5ZM100.7,40.9c-.3-.5-.6-.9-1.1-1.1-.5-.3-.9-.4-1.5-.4s-1,.1-1.5.4c-.5.3-.8.6-1.1,1.1-.3.5-.4,1.1-.4,1.8s.1,1.3.4,1.8c.3.5.7.9,1.1,1.2.5.3.9.4,1.5.4s1-.1,1.5-.4c.5-.3.8-.6,1.1-1.2.3-.5.4-1.1.4-1.8s-.1-1.3-.4-1.8Z"/>
    <path class="st0" d="M105.8,40c.4-.8,1-1.4,1.7-1.8.7-.4,1.5-.6,2.4-.6s1.5.2,2,.5,1,.7,1.4,1.1v-1.4h2.1v9.8h-2.1v-1.5c-.3.5-.8.9-1.4,1.2-.6.3-1.3.5-2,.5s-1.6-.2-2.3-.7c-.7-.4-1.3-1-1.7-1.8-.4-.8-.6-1.7-.6-2.7s.2-1.9.6-2.6ZM112.9,40.9c-.3-.5-.6-.9-1.1-1.1-.5-.3-.9-.4-1.5-.4s-1,.1-1.5.4c-.5.3-.8.6-1.1,1.1-.3.5-.4,1.1-.4,1.8s.1,1.3.4,1.8c.3.5.7.9,1.1,1.2.5.3.9.4,1.5.4s1-.1,1.5-.4c.5-.3.8-.6,1.1-1.2.3-.5.4-1.1.4-1.8s-.1-1.3-.4-1.8Z"/>
    <path class="st0" d="M121.2,38c.5-.3,1.1-.4,1.8-.4v2.1h-.5c-.8,0-1.4.2-1.8.6-.4.4-.6,1.1-.6,2.1v5.2h-2v-9.8h2v1.4c.3-.5.7-.9,1.2-1.2Z"/>
    <path class="st0" d="M124.8,40c.4-.8,1-1.4,1.7-1.8.7-.4,1.5-.6,2.4-.6s1.5.2,2,.5,1,.7,1.4,1.1v-1.4h2.1v9.8h-2.1v-1.5c-.3.5-.8.9-1.4,1.2-.6.3-1.3.5-2,.5s-1.6-.2-2.3-.7c-.7-.4-1.3-1-1.7-1.8-.4-.8-.6-1.7-.6-2.7s.2-1.9.6-2.6ZM131.8,40.9c-.3-.5-.6-.9-1.1-1.1-.5-.3-.9-.4-1.5-.4s-1,.1-1.5.4c-.5.3-.8.6-1.1,1.1-.3.5-.4,1.1-.4,1.8s.1,1.3.4,1.8c.3.5.7.9,1.1,1.2.5.3.9.4,1.5.4s1-.1,1.5-.4c.5-.3.8-.6,1.1-1.2.3-.5.4-1.1.4-1.8s-.1-1.3-.4-1.8Z"/>
    <path class="st0" d="M144,38.1c.6.3,1.1.8,1.4,1.4.3.6.5,1.4.5,2.3v5.8h-2v-5.5c0-.9-.2-1.6-.7-2-.4-.5-1-.7-1.8-.7s-1.4.2-1.8.7c-.4.5-.7,1.1-.7,2v5.5h-2v-9.8h2v1.1c.3-.4.8-.7,1.3-.9.5-.2,1.1-.3,1.7-.3s1.5.2,2.1.5Z"/>
    <path class="st0" d="M151,39.4v5.5c0,.4,0,.6.3.8.2.2.5.2.9.2h1.3v1.7h-1.6c-.9,0-1.6-.2-2.1-.6-.5-.4-.7-1.1-.7-2.1v-5.5h-1.2v-1.7h1.2v-2.4h2.1v2.4h2.4v1.7h-2.4Z"/>
    <path class="st0" d="M158.1,35.1l-4,1.9v-1.5l4-2.2v1.7ZM157.3,37.7v9.8h-2v-9.8h2Z"/>
    <path class="st0" d="M159.9,40c.4-.8,1-1.4,1.7-1.8.7-.4,1.5-.6,2.4-.6s1.5.2,2,.5,1,.7,1.4,1.1v-1.4h2.1v9.8h-2.1v-1.5c-.3.5-.8.9-1.4,1.2-.6.3-1.3.5-2,.5s-1.6-.2-2.3-.7c-.7-.4-1.3-1-1.7-1.8-.4-.8-.6-1.7-.6-2.7s.2-1.9.6-2.6ZM166.9,40.9c-.3-.5-.6-.9-1.1-1.1-.5-.3-.9-.4-1.5-.4s-1,.1-1.5.4c-.5.3-.8.6-1.1,1.1-.3.5-.4,1.1-.4,1.8s.1,1.3.4,1.8c.3.5.7.9,1.1,1.2.5.3.9.4,1.5.4s1-.1,1.5-.4c.5-.3.8-.6,1.1-1.2.3-.5.4-1.1.4-1.8s-.1-1.3-.4-1.8Z"/>
    <path class="st0" d="M180.2,38c.6-.3,1.3-.5,2-.5s1.6.2,2.4.6c.7.4,1.3,1,1.7,1.8.4.8.6,1.6.6,2.6s-.2,1.9-.6,2.7c-.4.8-1,1.4-1.7,1.8-.7.4-1.5.7-2.4.7s-1.4-.2-2-.5c-.6-.3-1.1-.7-1.4-1.1v6.1h-2v-14.5h2v1.4c.3-.5.8-.8,1.4-1.1ZM184.3,40.9c-.3-.5-.6-.9-1.1-1.1-.5-.3-.9-.4-1.5-.4s-1,.1-1.5.4c-.5.3-.8.6-1.1,1.1-.3.5-.4,1.1-.4,1.8s.1,1.3.4,1.8c.3.5.7.9,1.1,1.2.5.3.9.4,1.5.4s1-.1,1.5-.4c.5-.3.8-.7,1.1-1.2.3-.5.4-1.1.4-1.8s-.1-1.3-.4-1.8Z"/>
    <path class="st0" d="M188.8,40c.4-.8,1-1.4,1.7-1.8.7-.4,1.5-.6,2.4-.6s1.5.2,2,.5,1,.7,1.4,1.1v-1.4h2.1v9.8h-2.1v-1.5c-.3.5-.8.9-1.4,1.2-.6.3-1.3.5-2,.5s-1.6-.2-2.3-.7c-.7-.4-1.3-1-1.7-1.8-.4-.8-.6-1.7-.6-2.7s.2-1.9.6-2.6ZM195.8,40.9c-.3-.5-.6-.9-1.1-1.1-.5-.3-.9-.4-1.5-.4s-1,.1-1.5.4c-.5.3-.8.6-1.1,1.1-.3.5-.4,1.1-.4,1.8s.1,1.3.4,1.8c.3.5.7.9,1.1,1.2.5.3.9.4,1.5.4s1-.1,1.5-.4c.5-.3.8-.6,1.1-1.2.3-.5.4-1.1.4-1.8s-.1-1.3-.4-1.8Z"/>
    <path class="st0" d="M204.2,38c.5-.3,1.1-.4,1.8-.4v2.1h-.5c-.8,0-1.4.2-1.8.6-.4.4-.6,1.1-.6,2.1v5.2h-2v-9.8h2v1.4c.3-.5.7-.9,1.2-1.2Z"/>
    <path class="st0" d="M207.7,40c.4-.8,1-1.4,1.7-1.8.7-.4,1.5-.6,2.4-.6s1.5.2,2,.5,1,.7,1.4,1.1v-1.4h2.1v9.8h-2.1v-1.5c-.3.5-.8.9-1.4,1.2-.6.3-1.3.5-2,.5s-1.6-.2-2.3-.7c-.7-.4-1.3-1-1.7-1.8-.4-.8-.6-1.7-.6-2.7s.2-1.9.6-2.6ZM214.8,40.9c-.3-.5-.6-.9-1.1-1.1-.5-.3-.9-.4-1.5-.4s-1,.1-1.5.4c-.5.3-.8.6-1.1,1.1-.3.5-.4,1.1-.4,1.8s.1,1.3.4,1.8c.3.5.7.9,1.1,1.2.5.3.9.4,1.5.4s1-.1,1.5-.4c.5-.3.8-.6,1.1-1.2.3-.5.4-1.1.4-1.8s-.1-1.3-.4-1.8Z"/>
    <path class="st0" d="M224.5,40c.4-.8,1-1.4,1.7-1.8.7-.4,1.5-.6,2.4-.6s1.5.2,2,.5,1,.7,1.4,1.1v-1.4h2.1v9.8h-2.1v-1.5c-.3.5-.8.9-1.4,1.2-.6.3-1.3.5-2,.5s-1.6-.2-2.3-.7c-.7-.4-1.3-1-1.7-1.8-.4-.8-.6-1.7-.6-2.7s.2-1.9.6-2.6ZM231.5,40.9c-.3-.5-.6-.9-1.1-1.1-.5-.3-.9-.4-1.5-.4s-1,.1-1.5.4c-.5.3-.8.6-1.1,1.1-.3.5-.4,1.1-.4,1.8s.1,1.3.4,1.8c.3.5.7.9,1.1,1.2.5.3.9.4,1.5.4s1-.1,1.5-.4c.5-.3.8-.6,1.1-1.2.3-.5.4-1.1.4-1.8s-.1-1.3-.4-1.8Z"/>
    <path class="st0" d="M238.7,34.4v13.2h-2v-13.2h2Z"/>
    <path class="st0" d="M241.3,40c.4-.8,1-1.4,1.7-1.8.7-.4,1.5-.6,2.4-.6s1.4.2,2,.5c.6.3,1,.7,1.4,1.1v-1.4h2.1v14.5h-2.1v-6.1c-.3.4-.8.8-1.4,1.1s-1.3.5-2.1.5-1.6-.2-2.3-.7c-.7-.4-1.3-1-1.7-1.8-.4-.8-.6-1.7-.6-2.7s.2-1.9.6-2.6ZM248.4,40.9c-.3-.5-.6-.9-1.1-1.1-.5-.3-.9-.4-1.5-.4s-1,.1-1.5.4c-.5.3-.8.6-1.1,1.1-.3.5-.4,1.1-.4,1.8s.1,1.3.4,1.8c.3.5.7.9,1.1,1.2.5.3.9.4,1.5.4s1-.1,1.5-.4c.5-.3.8-.6,1.1-1.2.3-.5.4-1.1.4-1.8s-.1-1.3-.4-1.8Z"/>
    <path class="st0" d="M262.4,37.7v9.8h-2v-1.2c-.3.4-.7.7-1.3,1-.5.2-1.1.3-1.7.3s-1.5-.2-2.1-.5-1.1-.8-1.4-1.4c-.4-.6-.5-1.4-.5-2.3v-5.8h2v5.5c0,.9.2,1.6.7,2s1,.7,1.8.7,1.4-.2,1.8-.7c.4-.5.7-1.1.7-2v-5.5h2Z"/>
    <path class="st0" d="M265.2,36.1c-.3-.3-.4-.6-.4-.9s.1-.7.4-.9.6-.4.9-.4.7.1.9.4.4.6.4.9-.1.7-.4.9c-.3.3-.6.4-.9.4s-.7-.1-.9-.4ZM267.2,37.7v9.8h-2v-9.8h2Z"/>
    <path class="st0" d="M271.9,34.4v13.2h-2v-13.2h2Z"/>
    <path class="st0" d="M274.5,40c.4-.8,1-1.4,1.7-1.8.7-.4,1.5-.6,2.4-.6s1.5.2,2,.5,1,.7,1.4,1.1v-1.4h2.1v9.8h-2.1v-1.5c-.3.5-.8.9-1.4,1.2-.6.3-1.3.5-2,.5s-1.6-.2-2.3-.7c-.7-.4-1.3-1-1.7-1.8-.4-.8-.6-1.7-.6-2.7s.2-1.9.6-2.6ZM281.5,40.9c-.3-.5-.6-.9-1.1-1.1-.5-.3-.9-.4-1.5-.4s-1,.1-1.5.4c-.5.3-.8.6-1.1,1.1-.3.5-.4,1.1-.4,1.8s.1,1.3.4,1.8c.3.5.7.9,1.1,1.2.5.3.9.4,1.5.4s1-.1,1.5-.4c.5-.3.8-.6,1.1-1.2.3-.5.4-1.1.4-1.8s-.1-1.3-.4-1.8Z"/>
    <path class="st0" d="M289.9,38c.5-.3,1.1-.4,1.8-.4v2.1h-.5c-.8,0-1.4.2-1.8.6-.4.4-.6,1.1-.6,2.1v5.2h-2v-9.8h2v1.4c.3-.5.7-.9,1.2-1.2Z"/>
  </g>
  <g>
    <path class="st0" d="M31.4,22.6c.6-1.2.9-2.6.9-4s-.3-2.8-.8-4c-.6-1.2-1.3-2.2-2.2-3.1-.9-.8-1.9-1.5-3-1.9-1.1-.5-2.2-.7-3.2-.7s-1.8,0-2.4.2c-.2,1-.3,2.4-.4,4.3-.1,1.9-.2,3.4-.2,4.7v4.2c0,1.5,0,2.9.2,4.2.7.1,1.6.2,2.9.2,2.2,0,4-.4,5.3-1.1,1.4-.8,2.3-1.7,2.9-3"/>
    <path class="st0" d="M37,39l-4.5-6.5c-1-1.4-1.9-2.5-2.7-3.2-.8-.7-1.9-1.2-3.1-1.5v.2c.9.6,1.8,1.6,2.6,2.9l5.6,8.2c1.3,1.9,2.5,3.3,3.6,4.1,1.1.8,2.3,1.2,3.7,1.3v-.3c-1.4-.4-3.1-2.2-5.3-5.3"/>
    <rect class="st0" x="15.5" y="8.5" width="1.9" height="35.9"/>
    <path class="st0" d="M32,14.1c.7,1.6,1.1,3.2,1.1,4.7,0,3.5-1.5,6-4.5,7.5h.2c1.8-.3,3.2-1.3,4.4-2.8,1.1-1.5,1.7-3.2,1.7-5.3s-.3-3-.9-4.3c-.6-1.3-1.5-2.4-2.5-3.2-1.1-.9-2.2-1.5-3.6-2-1.3-.4-2.6-.7-4-.7h-1.3v.3c2.4,0,4.3.6,5.9,1.7,1.6,1.1,2.8,2.4,3.5,4"/>
    <path class="st0" d="M0,52.1h54.4V0H0v52.1ZM53.5,50.6c0,.4-.3.7-.7.7H1.6c-.4,0-.7-.3-.7-.7V1.5c0-.4.3-.7.7-.7h51.2c.4,0,.7.3.7.7v49.1Z"/>
    <path class="st0" d="M51.5,2.4H2.8c-.2,0-.3.1-.3.3v46.6c0,.2.1.3.3.3h48.7c.2,0,.3-.1.3-.3V2.8c0-.2-.1-.3-.3-.3M47.7,45.4h-4.5c-2.5,0-4.5-.8-6-2.3-.6-.6-1.2-1.3-1.7-2.1-.6-.8-1.5-2.1-2.7-4-1.3-1.8-2.3-3.3-3.2-4.5-.9-1.2-1.5-2-2-2.5-.7-.7-1.4-1.2-2-1.5-.6-.3-1.5-.4-2.7-.4s-1.9,0-2.5.2c-.1.9-.2,2-.2,3.1v4.8c0,2,.2,4.7.6,8l6.5.9v.3H7.9v-.3l6.1-.9c.3-1.7.5-4.2.6-7.4.2-3.2.2-5.5.2-6.9v-8c0-2.1,0-4.4-.2-7.1-.1-2.7-.3-4.7-.5-6.3l-6.2-.9v-.3h17c3.2,0,5.8.6,7.7,1.9,1.9,1.3,3.3,2.8,4,4.4.7,1.6,1.1,3.1,1.1,4.3s-.4,3.1-1.1,4.4c-.7,1.3-1.7,2.3-2.9,3.1-1.2.8-2.4,1.2-3.7,1.3h0c1.2.6,2.2,1.2,2.9,2,.6.6,1.3,1.5,2.1,2.6.8,1.1,1.8,2.6,3.1,4.5,1.3,1.9,2.3,3.4,3.1,4.5.8,1.1,1.5,1.9,2.2,2.6,1.5,1.5,2.9,2.2,4.3,2.2v.3Z"/>
    <path class="st0" d="M52.8,1.2H1.6c-.2,0-.3.1-.3.3v49.1c0,.2.1.3.3.3h51.2c.2,0,.3-.1.3-.3V1.5c0-.2-.1-.3-.3-.3M52.2,49.4c0,.4-.3.7-.7.7H2.8c-.4,0-.7-.3-.7-.7V2.8c0-.4.3-.7.7-.7h48.7c.4,0,.7.3.7.7v46.6Z"/>
  </g>
</svg>