<?xml version="1.0" encoding="UTF-8"?>
<svg xmlns="http://www.w3.org/2000/svg" version="1.1" viewBox="0 0 2772.57 2934.22">
  <defs>
    <style>
      .cls-1 {
        opacity: .6;
      }

      .cls-2 {
        fill: #92b39a;
      }

      .cls-3 {
        fill: #0b3426;
      }

      .cls-4 {
        opacity: .61;
      }

      .cls-5 {
        fill: #359054;
      }

      .cls-6 {
        fill: #fff;
      }

      .cls-7 {
        fill: #009045;
      }

      .cls-8 {
        fill: #8f9691;
      }

      .cls-9 {
        fill: #00764a;
      }

      .cls-10 {
        fill: #32403d;
      }

      .cls-11 {
        fill: #6e817c;
      }
    </style>
  </defs>
  <!-- Generator: Adobe Illustrator 28.6.0, SVG Export Plug-In . SVG Version: 1.2.0 Build 709)  -->
  <g>
    <g id="Layer_1">
      <path class="cls-6" d="M1020.91,1452.77s-158.29,87.26-241.61,244.36c-83.32,157.1,172.61,200.06,172.61,200.06l183.77-246.93"/>
      <path d="M951.91,1914.69c-.96,0-1.93-.08-2.9-.24-6.16-1.03-151.29-26.28-192.81-110.42-17.08-34.62-14.51-73.34,7.64-115.1,84.79-159.87,241.97-247.82,248.62-251.48,8.48-4.66,19.12-1.58,23.78,6.88,4.67,8.46,1.59,19.1-6.87,23.77h0c-1.54.85-154.82,86.82-234.6,237.23-16.81,31.7-19.16,58.92-7.17,83.21,25.65,51.98,113.86,80.29,156.82,89.4l177.22-238.12c5.78-7.75,16.74-9.36,24.49-3.59,7.75,5.77,9.37,16.74,3.59,24.49l-183.77,246.93c-3.34,4.48-8.57,7.05-14.04,7.06Z"/>
      <path class="cls-5" d="M957.04,1848.45c-55.97-121.2-44.78-329.89,109.11-432.74l49.47,108.06"/>
      <path d="M957.06,1865.95c-6.62,0-12.94-3.77-15.9-10.17-64.09-138.76-38.24-352.04,115.27-454.64,8.04-5.36,18.91-3.21,24.28,4.83s3.21,18.91-4.82,24.28c-152.58,101.97-151.63,305.44-102.95,410.85,4.05,8.77.22,19.17-8.55,23.23-2.38,1.1-4.87,1.62-7.33,1.62Z"/>
      <path class="cls-7" d="M2008.98,2576.36c-279.05,423.89-927.46,361.79-1030.25-170.22-.92-4.99-1.84-9.98-2.71-15.01l173.02-234.19s284.25-67.52,456.14-50.5c171.88,17.02,300.71,131.41,320.7,143.26,10.37,6.17,32.42,94.12,51.2,177.22,17.33,76.84,31.9,149.43,31.9,149.43Z"/>
      <path class="cls-6" d="M2210.37,1470.37s72.96,870.97-178.29,1094.41c-21.99,19.56-56.19,15.99-73.04-8.14-11.35-16.26-24.08-37.7-35.09-64.1-44.12-105.77-159.48-134.41-222.63-161.92l-752.93-185.25s-40.79-505.14,175.32-720.39c216.12-215.25,702.77-60.68,702.77-60.68"/>
      <path class="cls-9" d="M2008.98,2576.36c-279.05,423.89-927.46,361.79-1030.25-170.22l49.62,17.42c134.16,395.01,605.09,417.02,878.36,36.41l70.36-33.04c17.33,76.84,31.9,149.43,31.9,149.43Z"/>
      <path d="M1505.61,2872.65c-39.8,0-79.54-4.07-118.71-12.28-226.23-47.36-386.27-221.67-428.13-466.3-1.63-9.53,4.77-18.57,14.3-20.21,9.6-1.62,18.57,4.78,20.21,14.3,39.34,229.92,189.17,393.64,400.8,437.94,229.34,48.01,464.98-53.8,600.3-259.36,5.32-8.08,16.18-10.31,24.24-5,8.08,5.32,10.31,16.17,5,24.24-72.35,109.92-172.82,193.4-290.52,241.44-73.58,30.03-150.64,45.22-227.48,45.22Z"/>
      <path class="cls-2" d="M2008.98,1720.93c18.25,129.35-54.65,596.3-136.22,659.66-7.05,5.47-14.97,12.34-23.45,20.39,30.67,22.14,57.85,51.2,74.65,91.54,11.03,26.43,23.72,47.87,35.09,64.11,16.85,24.15,51.02,27.7,73.03,8.14,251.26-223.43,178.27-1094.4,178.27-1094.4l-314.36-86.86-97.32,223.82s192.06-15.71,210.3,113.6Z"/>
      <path d="M1998.99,2594.89c-2.6,0-5.21-.15-7.82-.46-18.76-2.21-35.7-12.33-46.47-27.77-14.49-20.76-26.9-43.43-36.89-67.38-34.43-82.55-118.72-115.31-180.25-139.23-11.36-4.41-22.11-8.59-31.83-12.78l-751.5-184.9c-7.32-1.8-12.66-8.08-13.27-15.59-1.69-20.95-38.93-515.74,180.41-734.2,92.1-91.73,246.37-131.87,446.16-116.11,148.97,11.76,269.22,49.54,274.26,51.15,9.21,2.92,14.31,12.76,11.38,21.98-2.92,9.21-12.76,14.31-21.97,11.39-4.78-1.51-479.09-148.83-685.12,56.4-189.37,188.61-175.35,615.47-171.02,694.06l740.45,182.19c.96.24,1.9.55,2.81.95,9.43,4.11,20.35,8.35,31.91,12.85,67.4,26.2,159.71,62.08,199.88,158.38,9.03,21.65,20.23,42.11,33.29,60.82,5.14,7.36,12.9,11.99,21.87,13.04,9.14,1.08,18.29-1.83,25.19-7.96,241.91-215.14,173.2-1071.25,172.48-1079.87-.81-9.63,6.35-18.1,15.98-18.9,9.66-.78,18.1,6.35,18.9,15.98.19,2.19,18.19,221.76,5.11,465.81-17.73,330.87-81.4,547.25-189.21,643.14-12.39,11.02-28.35,17.03-44.73,17.03Z"/>
      <path class="cls-5" d="M1843.24,1565.59c-175.76,193.98-569.37,203.96-655.51-69"/>
      <path class="cls-6" d="M1279.18,1543.83s52.89,85.9,162.5,85.94c109.61.04,184.6-26.06,184.14-38.15-.46-12.09-134.53-20.83-134.53-20.83"/>
      <path d="M1507.19,1724.45c-31.86,0-63.51-3.23-94.18-9.94-121.12-26.48-207.05-102-241.97-212.65-2.91-9.22,2.2-19.05,11.42-21.96,9.23-2.91,19.05,2.21,21.96,11.42,30.98,98.19,107.71,165.31,216.06,188.99,145.1,31.71,313.58-20.3,409.79-126.47,6.49-7.16,17.56-7.71,24.72-1.22,7.16,6.49,7.71,17.56,1.22,24.72-83.82,92.51-218.12,147.11-349.01,147.11Z"/>
      <path d="M1668.59,1590.71c-17.16,15.95-37.91,27.32-59.47,36.04-62.37,25.15-131.61,22.86-195.86,6.95-11.6-2.71-8.55-19.92,3.39-18.31,30.63,5.61,62.27,9.52,93.38,7.11,35.31-1.98,70.65-11.01,101.61-27.84,12.51-6.8,24.7-15.01,34.75-25.04,14.28-15.79,37.28,5.91,22.21,21.1h0Z"/>
      <path d="M1287.48,1525.87c8.9,27.61,30.79,50.59,57.68,61.54,10.44,4.82,4.46,20.67-6.54,17.41-35.3-9.71-65.53-35.95-80.34-69.55-7.57-20.65,23.29-30.61,29.2-9.4h0Z"/>
      <g>
        <path class="cls-8" d="M1410.28,2299.45c-33.3,33.87-233.01,106.77-322.85,121.52-69.4,11.42-136.83-17.85-163.92-31.72-8.01-4.11-12.47-6.87-12.47-6.87l-478.89-107.21,377.55-206.58,600.58,158.01s4.86,5.69,9.01,14.66c6.74,14.44,11.55,37.32-9.01,58.2Z"/>
        <path class="cls-11" d="M1410.28,2299.45c-33.3,33.87-233.01,106.77-322.85,121.52-69.4,11.42-136.83-17.85-163.92-31.72,24.46-7.48,55-9.67,77.28-1.62,60.04,21.79,201.2-38.24,268.9-57.02,67.69-18.77,36.19-64.85,36.19-64.85l70.98-43.93c.48-2.36,15.18,3.72,42.45,19.43,6.74,14.44,11.55,37.32-9.01,58.2Z"/>
        <path d="M1054.84,2441.08c-73.23,0-136.56-34.25-150.33-42.24l-476.21-106.59c-7.11-1.59-12.49-7.42-13.51-14.63-1.02-7.21,2.54-14.3,8.93-17.8l377.55-206.59c3.93-2.15,8.53-2.71,12.86-1.57l600.61,158.01c3.46.91,6.55,2.85,8.87,5.57,15.12,17.73,34.39,60.72-.84,96.52-38.84,39.46-248.4,112.69-332.51,126.5-11.94,1.96-23.81,2.82-35.41,2.82ZM920.23,2367.46c.81.5,82.29,49.73,164.36,36.25,90.75-14.91,283.96-86.78,313.23-116.52,17.01-17.28,7.96-36.45,2.12-45.23l-587.97-154.68-330.7,180.95,433.61,97.06c1.89.42,3.7,1.16,5.35,2.17h0Z"/>
        <g>
          <path class="cls-8" d="M1028.36,2344.57c.48,28.27-24.33,50.32-52.34,46.56l-642.29-86.55c-16.45-2.23-30.46-13.04-36.67-28.44-21.88-54.48-42.8-109.57-62.71-165.28-.79-2.06-1.31-3.59-1.58-4.42-.18-.48-.26-.74-.26-.74-69.31-194.59-126.37-396.76-170.13-607.15-5.78-27.74,14.57-53.95,42.84-55.53,253.19-14.31,493.81,49.62,728.45,151.36,10.85,4.68,19.47,13.39,24.07,24.29,3.15,7.44,6.26,14.83,9.32,22.27,0,0,.04.13.13.44,96.31,232.88,157.36,467.03,161.16,703.2Z"/>
          <ellipse class="cls-11" cx="525.5" cy="1866.66" rx="66.55" ry="96.87" transform="translate(-468.68 201.68) rotate(-15.12)"/>
          <path class="cls-11" d="M1028.36,2344.57c.48,28.27-24.33,50.32-52.34,46.56l-642.29-86.55c-16.45-2.23-30.46-13.04-36.67-28.44-21.88-54.48-42.8-109.57-62.71-165.28,8.75,23.06,49.49,116.75,141.78,138.85,105.46,25.25,555.78,135.96,569.21-83.45,13.08-214.59-74.35-512.02-78.15-524.88,96.31,232.88,157.36,467.03,161.16,703.2Z"/>
          <path d="M982.21,2409.05c-2.83,0-5.68-.19-8.53-.57l-642.29-86.55c-22.68-3.06-42.05-18.09-50.55-39.25-100.76-250.7-180.02-513.31-235.61-780.54-3.77-18.14.54-36.98,11.82-51.67,11.35-14.79,28.56-23.87,47.22-24.93h0c231.9-13.08,465.84,35.46,736.38,152.79,15.03,6.52,26.82,18.42,33.2,33.51,112.05,264.69,168.32,504.28,172.02,732.46.3,18.59-7.5,36.33-21.39,48.67-11.74,10.43-26.79,16.08-42.28,16.08ZM106.24,1460.48h0c-8.47.48-16.28,4.59-21.42,11.29-5.15,6.7-7.03,14.95-5.31,23.23,55.16,265.22,133.82,525.84,233.81,774.61,3.81,9.48,12.53,16.24,22.75,17.61l642.29,86.55c8.28,1.12,16.61-1.43,22.87-6.98,6.26-5.56,9.78-13.56,9.64-21.94-3.64-223.6-59-458.91-169.26-719.39-2.87-6.77-8.15-12.11-14.89-15.03-265.35-115.06-494.3-162.73-720.48-149.95Z"/>
          <path class="cls-11" d="M232.52,2105.69c.04.26.13.52.26.74-.18-.48-.26-.74-.26-.74Z"/>
          <ellipse class="cls-6" cx="533.96" cy="1876.43" rx="66.55" ry="96.87" transform="translate(-470.94 204.22) rotate(-15.12)"/>
        </g>
        <g>
          <path class="cls-6" d="M475.09,2259.99s-48.82-18.23-61.19,23.43c-12.37,41.66,4.88,88.85,30.59,108.71,25.71,19.85,59.24-15.62,59.24-15.62"/>
          <path d="M461.94,2415.79c-9.44,0-19.05-2.79-28.14-9.81-29.8-23.02-51.67-77.02-36.67-127.54,4.63-15.62,14.04-27.34,27.18-33.89,24.75-12.34,53.68-2.16,56.9-.95,9.06,3.38,13.66,13.46,10.27,22.52-3.37,9.03-13.38,13.64-22.45,10.3-4.58-1.65-19.73-5.27-29.19-.5-2.75,1.39-6.7,4.2-9.16,12.49-10.24,34.52,4.4,74.34,24.51,89.88,12.23,9.43,35.63-13.6,35.86-13.84,6.66-6.96,17.73-7.24,24.73-.59,6.98,6.65,7.3,17.67.67,24.68-11.53,12.2-32.57,27.27-54.51,27.27Z"/>
          <path class="cls-6" d="M693.38,2365s-33.43,80.73-117.18,23.02c0,0-38.59,39.03-80.69-5.21-13.08-13.74-22.49-33.08-28.09-53.78-12.47-45.9-6.13-98.59,21.14-112.02,31.99-15.8,57.72-4.29,73.25,30.19,3.63,8.05,6.74,17.42,9.19,27.96,0,0,5.64-43.19,42.1-43.41,28.27-.17,40.21,20.44,46.21,45.07,1.71,7.13,2.93,14.62,3.94,22.01,4.33,32.95,30.15,66.16,30.15,66.16Z"/>
          <path class="cls-2" d="M693.38,2365s-33.43,80.73-117.18,23.02c0,0-38.59,39.03-80.69-5.21-13.08-13.74-22.49-33.08-28.09-53.78,1.93-3.11,3.11-4.81,3.11-4.81,0,0,19.56,42.1,55.57,40.35,36.01-1.75,29.49-113.03,29.49-113.03l16.1,67.87s17.33,44.72,49.67,36.06c32.29-8.71,24.29-74.21,24.29-74.21l13.65-4.42c1.71,7.13,2.93,14.62,3.94,22.01,4.33,32.95,30.15,66.16,30.15,66.16Z"/>
          <path d="M632.12,2426.34c-17.4,0-35.78-5.67-54.95-16.96-9.01,5.82-22.83,12.21-39.66,12.03-19.72-.19-38.13-9.13-54.71-26.56-33.9-35.65-44.16-96.5-36.76-138.17,4.85-27.38,16.87-46.52,34.74-55.36,26.8-13.26,47.2-9.06,59.61-3.21,13.11,6.18,24.18,17.37,32.86,33.01,9.25-9.66,22.18-16.75,39.74-16.86.16,0,.32,0,.47,0,56.29,0,64.14,59.74,67.1,82.27,3.05,23.19,20.25,49.53,26.63,57.72,3.86,4.97,4.76,11.63,2.35,17.44-.67,1.63-16.99,40.1-55.53,51.49-7.11,2.1-14.42,3.15-21.91,3.15ZM576.21,2370.5c3.45,0,6.91,1.01,9.93,3.09,22.35,15.4,41.86,20.78,57.96,16.03,14.19-4.19,23.67-15.6,28.73-23.42-8.82-13.36-23.51-38.88-26.96-65.09-5.66-43.05-16.61-51.83-32.41-51.83h-.26c-20.22.12-24.44,25.39-24.85,28.27-1.2,8.33-8.16,14.69-16.57,15.05-8.25.36-15.89-5.24-17.81-13.44-6.11-26.06-16.23-43.59-28.5-49.38-7.89-3.72-17.71-2.74-29.16,2.92-7.28,3.6-13.04,14.57-15.79,30.09-5.8,32.66,2.96,81.96,27.66,107.93,9.8,10.31,19.79,15.58,29.68,15.68.09,0,.19,0,.28,0,14.38,0,25.52-10.61,25.62-10.72,3.39-3.43,7.91-5.2,12.45-5.2Z"/>
          <path d="M588.36,2277.43c-3.79,14.57-6.72,32.23-4.52,46.88.87,5.84-3.17,11.27-9,12.14-4.85.72-9.43-1.96-11.33-6.23-6.23-14.37-8.04-28-9.32-42.81-.35-4.97-.62-9.73-.53-15.17,1.75-26.63,40.81-20.8,34.71,5.19h0Z"/>
        </g>
        <path d="M1067.16,2367.63c-4.53,0-9.06-.51-13.53-1.54l-28.7-6.6c-8.24-1.89-13.39-10.11-11.49-18.36,1.89-8.25,10.08-13.38,18.36-11.5l28.7,6.6c5.6,1.29,11.43.93,16.84-1.05l187.1-68.33c7.92-2.89,16.74,1.18,19.64,9.13,2.91,7.94-1.19,16.74-9.13,19.64l-187.1,68.33c-6.67,2.44-13.67,3.67-20.68,3.67Z"/>
        <path d="M1243.13,2284.87c-.97,0-1.95-.13-2.92-.4l-214.88-59.51c-5.82-1.61-9.23-7.64-7.62-13.46,1.62-5.82,7.65-9.24,13.46-7.62l214.88,59.51c5.82,1.61,9.23,7.64,7.62,13.46-1.34,4.85-5.74,8.02-10.54,8.02Z"/>
        <path d="M1172.4,2327.72c-.95,0-1.92-.13-2.89-.39l-144.15-39.42c-5.83-1.59-9.26-7.61-7.67-13.44,1.59-5.82,7.59-9.27,13.44-7.67l144.15,39.42c5.83,1.59,9.26,7.61,7.67,13.44-1.33,4.86-5.74,8.06-10.55,8.06Z"/>
        <path d="M1069.42,2292.19c-3.83,0-7.55-2.02-9.56-5.6-2.95-5.27-1.07-11.94,4.2-14.89l66.27-37.08c5.26-2.96,11.94-1.07,14.89,4.2,2.95,5.27,1.07,11.94-4.2,14.89l-66.27,37.08c-1.69.95-3.53,1.4-5.33,1.4Z"/>
      </g>
      <g>
        <ellipse class="cls-5" cx="2228.75" cy="1727.51" rx="236.95" ry="181.62" transform="translate(-18.77 3430.52) rotate(-74.93)"/>
        <g class="cls-1">
          <path class="cls-6" d="M2134.33,1543.98s-60.93,73.3-51.38,113.22c9.55,39.92,51.21-11.28,79.85-36.45,28.64-25.17,69-30.81,65.96-40.36-3.04-9.55,34.15-82.89-51.28-61.19"/>
        </g>
        <path d="M2204.33,1978.73c-14.03,0-28-1.83-41.72-5.52-106.02-28.54-162.6-161.99-126.12-297.47,36.48-135.48,152.44-222.47,258.42-193.93,106.02,28.54,162.59,161.98,126.12,297.47-17.45,64.81-53.38,120.67-101.18,157.3-36.25,27.78-76.14,42.16-115.52,42.16ZM2253.35,1511.33c-77.68,0-155.47,71-183.07,173.51-31.46,116.84,14.04,231.04,101.43,254.56,41.47,11.17,86.51.3,126.85-30.62,41.72-31.97,73.21-81.2,88.67-138.61,31.46-116.84-14.04-231.04-101.42-254.56-10.72-2.89-21.59-4.28-32.45-4.28Z"/>
        <path class="cls-6" d="M2138.94,2261.3c-57.32,10.11-100.38,9.8-132.19,2.06-95.31-23.15-89.97-112.94-66.08-188.77,3.19-10.11,6.69-19.91,10.37-29.32,18.6-48.05,40.78-84.72,40.78-84.72,0,0,67.26-22.14,105.02-110.67,37.72-88.52-8.27-196.56,131.93-269.51,67.74-35.23,110.01-12.78,135.65,19.78,27.39,34.88,35.75,81.35,35.75,81.35,0,0,107.16,514.69-261.24,579.8Z"/>
        <path class="cls-2" d="M2138.94,2261.3c-57.32,10.11-100.38,9.8-132.19,2.06-40.48-84.8-62.92-152.45-66.08-188.77-1.62-18.51,1.79-28.92,10.33-29.32h.04l129.31-25.07c5.6,4.86,118.9,103.64,197.88,48.4,123.46-86.35,154.25-378.73,87.52-466.64-.48-.61-.92-1.23-1.31-1.79,27.39,34.88,35.75,81.35,35.75,81.35,0,0,107.16,514.69-261.24,579.8Z"/>
        <path d="M2060.49,2286.46c-63.11,0-107.15-17.76-131.39-53.13-64.47-94.07,43.12-274.22,47.73-281.84,2.15-3.55,5.48-6.22,9.41-7.54,2.49-.85,60.6-21.5,94.48-100.93,10.79-25.3,14.18-52.85,17.78-82.02,8.19-66.41,17.48-141.69,122.16-196.14,43.86-22.81,83.15-26.01,116.78-9.47,62.72,30.82,79.26,119.27,79.94,123.02,2.35,11.25,58.35,288.79-61.64,465.97-49.19,72.64-121.12,117.77-213.78,134.14-29.97,5.29-57.14,7.94-81.48,7.94ZM2003.83,1974.6c-29.35,50.59-87.38,178.39-45.83,238.96,25.13,36.65,84.98,46.91,177.88,30.49,82.95-14.66,147.15-54.76,190.83-119.21,111.69-164.8,56.88-437.04,56.32-439.77-.22-1.19-14.27-75.38-61.1-98.31-23.07-11.29-51.7-8.22-85.1,9.16-88.35,45.95-95.74,105.9-103.57,169.37-3.74,30.3-7.6,61.62-20.33,91.46-33.82,79.31-89.93,109.52-109.1,117.85Z"/>
        <path class="cls-5" d="M1369.5,1790s73.56-33.2,117.17-22.13c43.61,11.07,505.14,192.68,505.14,192.68,0,0,244.11,120.43,173.8,297.48-61.84,157.53-573.16,135.4-735.57,29.29"/>
        <g class="cls-1">
          <path class="cls-6" d="M2168.7,2249.7c16.45-151.32-185.58-250.95-185.58-250.95,0,0-461.52-181.64-505.15-192.71-32.43-8.23-81.48,8.05-104.45,16.98l-4.03-32.99s73.56-33.21,117.19-22.14c43.63,11.07,505.15,192.67,505.15,192.67,0,0,236.47,116.66,176.87,289.16Z"/>
        </g>
        <path class="cls-9" d="M2165.63,2258.01c-61.87,157.53-573.19,135.43-735.58,29.32l-16.41-134.77-44.15-362.54s11.03-4.99,27.04-10.46l18.99,372.78c154.55,117.27,663.07,175.25,735.8,22.49,7.13-14.83,11.9-29.41,14.66-43.63,14.88,37.59,18.12,80.25-.35,126.81Z"/>
        <path d="M1827.94,2389.08c-155.75,0-322.95-31.89-407.47-87.1-8.09-5.29-10.37-16.13-5.08-24.23,5.29-8.1,16.14-10.36,24.23-5.08,121.04,79.08,437.84,107.21,605.3,53.76,56.13-17.92,92.23-43.78,104.4-74.79,61.92-155.95-151.84-268.53-164.68-275.1-159.5-62.76-468.68-183.18-502.28-191.7-30.81-7.81-86.72,12.6-105.67,21.12-8.81,3.96-19.17.04-23.14-8.77-3.97-8.81-.05-19.17,8.75-23.14,8.11-3.65,80.52-35.36,128.68-23.14,44.18,11.21,488.36,185.93,507.25,193.36.45.18.9.37,1.33.59,2.6,1.28,64.23,32,117.9,85.67,73.67,73.67,95.95,154.58,64.43,233.98-16.36,41.67-58.87,73.75-126.32,95.28-62.61,19.99-143.46,29.3-227.63,29.31Z"/>
        <g>
          <path class="cls-6" d="M1629.25,2146.74s-60.17,123.09-164.84,159.46c-69.31,24.11-109.22-8.01-124.4-44.9,0,0-114.56,34.7-147.99-50.8,0,0-89.4-4.77-103.27-93.29-13.7-87.25,57.76-181.29,59.82-183.96-2.54.96-91.98,35.23-124.05,41.61-32.56,6.52-85.5-44.24-39.51-103.27,10.55-13.52,28.92-27.44,52.69-40.26.04-.04.09-.04.09-.04,79.99-43.23,221.02-74.7,331.73-41.26,0,0,194.59,38.81,247.41,228.59,10.28,36.76,15.18,79.2,12.34,128.12Z"/>
          <path class="cls-2" d="M1629.25,2146.74s-60.17,123.09-164.84,159.46c-69.31,24.11-109.22-8.01-124.4-44.9,0,0-114.56,34.7-147.99-50.8,0,0-89.4-4.77-103.27-93.29-13.7-87.25,57.76-181.29,59.82-183.96-2.54.96-91.98,35.23-124.05,41.61-32.56,6.52-85.5-44.24-39.51-103.27,10.55-13.52,28.92-27.44,52.69-40.26-1.84,1.62-38.46,33.61-21,65.86,17.9,33.08,184.92-16.02,184.92-16.02,0,0-78.46,118.1-56.67,194.29,21.44,74.87,81.04,2.49,83.05.04-.96,2.06-30.98,65.46,26.65,110.27,58.55,45.55,117.84-21.35,117.84-21.35,0,0-41.05,74.43,63.76,85.15,104.76,10.72,105.46-124.97,105.46-124.97,0,0,33.04-61.04,75.22-105.98,10.28,36.76,15.18,79.2,12.34,128.12Z"/>
          <path d="M1419.81,2331.95c-43.33,0-73.06-22.99-89.16-50.25-45.83,9.61-119.35,7.26-150.54-54.89-37.71-5.94-97.16-33.4-108.68-106.89-8.85-56.41,14.07-114.05,34.79-152.4-27.9,9.95-60.73,21-78.3,24.51-23.68,4.74-51.91-9.73-67.13-34.39-8.65-14-24.94-51.47,10.41-96.81,52.09-66.84,252.96-132.61,402.62-87.81,8.9,1.9,76.56,17.61,142.79,68.43,64.6,49.57,139.62,142.95,130.09,306.29-.14,2.32-.73,4.58-1.75,6.67-2.59,5.29-64.59,130.03-174.78,168.33-18.44,6.41-35.24,9.21-50.37,9.22ZM1339.97,2243.79c6.93,0,13.44,4.13,16.21,10.83,7.65,18.59,32.96,59.2,102.5,35.04,87.67-30.47,143.45-129.13,153.27-147.64,5.92-117.09-33.32-208.85-116.65-272.8-63.16-48.46-128.57-61.93-129.22-62.06-.55-.11-1.1-.25-1.64-.41-140.91-42.57-326.48,25.36-365.63,75.59-15.6,20.02-18.52,40.23-8.23,56.91,8.07,13.07,22.29,20.1,30.48,18.45,30.72-6.14,120.38-40.49,121.27-40.84,7.31-2.82,15.62-.41,20.32,5.89,4.68,6.3,4.6,14.94-.2,21.15-.68.88-68.97,90.71-56.45,170.59,11.56,73.67,83.85,78.37,86.92,78.54,6.86.37,12.87,4.71,15.37,11.11,27.08,69.27,122.59,41.6,126.64,40.39,1.66-.5,3.36-.74,5.02-.74ZM1629.23,2146.72h.05-.05Z"/>
          <path class="cls-5" d="M1369.5,1790s-69.91-3.91-70.98,13.89c-1.06,17.79,149.52,62.06,185.98,180.53,36.45,118.47,28.21,142.78,88.1,163.61,59.89,20.83,56.63-1.3,56.63-1.3,13.67-187.47-100.97-331.67-259.73-356.72Z"/>
          <path d="M1612.87,2172.22c-11.7,0-26.64-3.24-45.31-9.73-54.6-18.99-61.34-43.68-79.37-109.66-4.7-17.2-10.55-38.61-18.33-63.91-23.64-76.83-99.98-120.74-145.59-146.98-28.78-16.56-41.92-24.12-41.04-38.97,1.3-21.91,30.61-31.44,87.12-28.26.51.03,1.03.08,1.53.16,171.46,27.06,286.02,183.42,272.68,372.02.1,5.57-2.05,12.97-8.61,18.39-5.59,4.62-13.18,6.94-23.09,6.94ZM1614.07,2148.93s0,.01,0,.02c0,0,0-.01,0-.02ZM1324.62,1806.68c4.62,2.78,9.92,5.83,14.93,8.71,46.27,26.62,132.41,76.17,159.59,164.52,7.92,25.76,13.85,47.43,18.6,64.84,17.39,63.64,20.52,75.11,59.88,88.8,21.34,7.42,31.99,8.23,36.6,8.04,10.7-170.65-92.35-311.64-246.34-336.35-15.47-.81-31.93-.16-43.27,1.43Z"/>
          <path d="M1135.72,1921.37c27.55-25.31,54.08-50.75,86.94-69.41,11.77-5.97,21.76,10.68,11,18.24-27.3,20.6-50.15,48.7-72.17,74.87-16.22,18.52-42.9-5.95-25.76-23.7h0Z"/>
          <path d="M1178.52,2221.67c-47.23-62.27,61.72-203.46,119.61-230.32,5.31-2.55,11.68-.31,14.22,5,2.52,5.24.34,11.52-4.78,14.12-34.04,20.59-58.77,55.48-79.13,89.17-10.09,17.59-18.78,36.08-24.1,54.61-3.5,12.97-5.94,25.77-2.75,37.84,1.13,3.65,2.74,5.81,4.64,8.2,13.83,18.6-13.15,39.51-27.71,21.38h0Z"/>
          <path d="M1322.87,2264.94c-4.3-35.88,9.62-72.32,32.72-99.36,1.3-1.67,4.14-4.88,5.68-6.33,0,0,5.93-6.04,5.93-6.04,7.64-6.12,17.78-20.37,27.63-10.01,8.41,10.25-5.24,18.49-10.89,25.83,0,0-4.49,5.72-4.49,5.72-7.21,9.27-13.11,20-17.31,30.93-5.99,16.57-8.71,34.89-5.03,51.95,4.14,22.74-28.71,29.8-34.24,7.3h0Z"/>
        </g>
      </g>
      <path class="cls-6" d="M867.06,968.03v227.67s4.9,48.22,45.2,110.32c51.9,80.12,162.56,183.35,397.19,236.12,416.62,93.77,898.53-7.35,1041.54-67.3,178.93-75,227.15-280.14,208.29-744.02,0,0-52.07-205.45-188.77-389.01-42.01-56.4-111.45-105.94-200.89-144.32h-.04c-201.59-86.51-504.88-116.31-824.98-40.56-462.18,109.35-477.54,811.11-477.54,811.11Z"/>
      <path class="cls-2" d="M912.27,1306.02c51.9,80.12,162.56,183.35,397.19,236.12,416.62,93.77,898.53-7.35,1041.54-67.3,178.93-75,227.15-280.14,208.29-744.02,0,0-52.07-205.45-188.77-389.01-42.01-56.4-111.45-105.94-200.89-144.32,3.72,1.79,228.07,111.15,225.53,347.4-2.49,238.26-320.62,1218.01-1460.52,769.8-7.53-2.98-14.97-5.86-22.36-8.66Z"/>
      <path d="M1681.37,1597.77c-117.76,0-247.88-9.76-375.76-38.54-220.25-49.56-332.22-144.09-387.38-214.68-60.93-77.98-68.31-144.29-68.59-147.08-.06-.59-.09-1.18-.09-1.78v-227.69c.17-7.65,4.61-180.58,66.32-369.96,82.61-253.54,229.47-411.97,424.7-458.16,217.22-51.4,445.41-57.62,642.52-17.53,184.11,37.45,330.43,113.62,401.45,208.98,137.2,184.24,189.54,386.64,191.7,395.16.3,1.18.47,2.38.52,3.59,19.77,485.68-37.55,684.79-219.02,760.87-73.82,30.95-233.25,71.57-423,92.55-71.23,7.88-158.28,14.25-253.38,14.25ZM884.57,1194.61c.96,6.89,10.37,64.16,62.84,130.4,51.78,65.36,157.29,153.13,365.89,200.07,396.34,89.18,874.48-.81,1030.91-66.39,164.69-69.05,216.47-258.89,197.66-725.26-5.35-19.94-58.96-211.38-185.4-381.17-65.94-88.54-204.57-159.83-380.35-195.58-192.25-39.11-415.09-32.96-627.49,17.29-185.32,43.85-319.73,190.19-399.48,434.94-60.12,184.51-64.56,357.77-64.6,359.49v226.21Z"/>
      <g>
        <path d="M867.06,1195.7c1.58,8.01,3.19,15.84,4.95,23.59,221.33,318.95,1003.82,295.19,1304.52,166.63,140.6-447.87-52.95-806.29-52.95-806.29-17.07-9.23-33.87-17.9-50.41-26.04-199.85-98.32-357.51-119.81-357.51-119.81l-126.72,104.19c-164.01,49.88-294.49,48.53-371.51-34.74l-5.21-142.35s-151.01,30.41-238.66,106.77c-117.8,238.83-145.5,525.06-106.51,728.05Z"/>
        <path d="M1624.81,1492.29c-44.1,0-88.16-1.44-131.5-4.4-178.88-12.25-499.33-62.13-635.67-258.62-1.28-1.85-2.2-3.93-2.7-6.13-23.83-105.66-28.34-235.35-12.7-365.16,17.08-141.69,57.06-279.33,115.62-398.06,1.03-2.08,2.45-3.93,4.2-5.45,90.12-78.53,240.38-109.44,246.73-110.72,5.05-1.01,10.26.24,14.29,3.42,4.03,3.18,6.46,7.97,6.65,13.1l4.96,135.69c66.92,67.53,180.15,76.11,345.82,26.27l124.02-101.94c3.77-3.09,8.63-4.48,13.48-3.82,7.68,1.05,190.6,26.99,413.89,147.76,3,1.62,5.46,4.08,7.08,7.08,2.03,3.75,49.95,93.52,80.92,239.9,28.55,134.89,47.09,345-26.68,579.97-1.53,4.88-5.12,8.84-9.82,10.85-132.95,56.83-346.03,90.27-558.59,90.27ZM888.35,1212.08c129.17,182.16,435.62,229.12,607.35,240.88,243.33,16.66,509.56-15.45,666.52-80.01,68.53-224.06,50.85-424.19,23.7-553.21-26.05-123.82-65.52-207.46-75.43-227.28-190.61-102.16-353.74-134.01-389.81-140.12l-120.63,99.16c-1.77,1.46-3.82,2.55-6.02,3.22-185.28,56.38-312.67,43.44-389.42-39.58-2.84-3.07-4.49-7.06-4.64-11.24l-4.43-121.06c-42.61,10.88-143.14,40.94-207.84,95.77-124.4,254.39-139.62,550.55-99.36,733.49Z"/>
      </g>
      <path class="cls-7" d="M1170.83,961.72c-10.69-57.63-25.27-114.34-37.34-147.08-22.81,29.5-56.66,84.04-87.63,142.1-4.79,8.98-15.9,12.45-24.94,7.77l-44.66-23.12c-9.22-4.77-12.75-16.14-7.84-25.28,10.44-19.41,29.04-53.14,49.97-87.14,55.81-90.67,88.6-122.12,125.5-120.28,46.76,2.38,69.99,56.69,92.32,143.55,9.47,36.83,16.76,73.12,20.74,94.25,1.93,10.21-4.91,19.99-15.15,21.73l-49.58,8.44c-10.01,1.7-19.53-4.95-21.38-14.94Z"/>
      <path class="cls-7" d="M1687.31,989.02c23.22-53.82,50.03-105.87,69.07-135.12,15.69,33.83,36.58,94.52,53.89,158.01,2.68,9.82,12.74,15.67,22.59,13.12l48.68-12.63c10.05-2.61,16.02-12.91,13.26-22.91-5.87-21.25-16.51-58.26-29.37-96.06-34.28-100.8-59.27-138.75-95.65-145.14-46.12-8.06-80.83,39.73-121.89,119.47-17.41,33.81-32.58,67.58-41.15,87.29-4.15,9.53.35,20.58,9.95,24.55l46.47,19.24c9.39,3.89,20.14-.49,24.16-9.82Z"/>
      <path class="cls-7" d="M1321.46,1071.73c62.13,24.88,127.22,26.15,195.72.08,9.54-3.63,19.67,3.82,19.08,14.01-3.41,58.25-22.08,210.51-124.22,209.46-102.69-1.06-110.56-153.62-109.92-210.6.11-9.92,10.14-16.63,19.35-12.94Z"/>
      <g>
        <path class="cls-5" d="M2350.05,985.01c40.45-172.71,129.06-299.65,197.91-283.52,57.54,12.66,92.81,59.25,92.81,59.25l-.02.07c40.54,44.99,50.04,164.59,19.08,296.76-31.55,134.69-94.94,239.07-152.09,258.65v.03c-30.31,10.86-71.58,18.5-103.97,11.07-.76-.14-1.54-.21-2.3-.39-2.37-.55-4.67-1.31-6.92-2.18-.07-.02-.14-.04-.21-.06v-.03c-63.26-24.77-83.31-173.06-44.29-339.65Z"/>
        <path class="cls-9" d="M2643.71,1115.66s-85.53,167.09-147.57,164.16c-62.04-2.93-83.83-117.21-83.83-117.21l-82.13-7.44,14.62,103.56s44.08,34.34,99.01,34.71c0,0,26.78,47.8,86.1,0,59.32-47.8,74.64-83.07,78.11-90.05,3.46-6.99,18.97-42.37,18.97-42.37"/>
        <g class="cls-4">
          <path class="cls-6" d="M2554.35,769.69l9.71,84.19s-43.99,59.76-44.56,60.77-8.6,8.02-9.03,9.53c-.43,1.52-8.68,22.35-10.42,21.7-1.74-.65-29.87-51.21-29.87-51.21l44.41-78.55"/>
        </g>
        <g class="cls-4">
          <path class="cls-6" d="M2473.58,730.81s32.57,5.47,71.61,28.47c0,0-31.8,39.32-51.59,77.9-19.79,38.58-26.21,53.05-26.21,53.05,0,0-75.19-15.19-72.15-21.86,3.04-6.67,36.46-102.22,78.34-137.55Z"/>
        </g>
        <path d="M2432.16,1347.78c-10.59,0-21.35-.94-31.78-3.29-1.09-.16-2.01-.31-2.92-.52-2.8-.66-5.66-1.54-8.69-2.69-.11-.04-.22-.08-.32-.11-.53-.19-1.05-.41-1.56-.64-36.3-14.91-61.29-61.09-70.41-130.22-8.64-65.49-2.77-146.93,16.52-229.29h0c20.05-85.64,52.37-163.27,90.99-218.6,41.76-59.83,87.22-87.51,127.94-77.97,62.89,13.83,101.18,63.62,102.78,65.73.01.02.02.03.04.05,44.84,51.46,53.77,176.18,22.11,311.33-32.62,139.28-97.83,247.89-162.5,270.88-.24.1-.49.19-.73.28-11.6,4.15-45.52,15.06-81.48,15.06ZM2394.35,1324.69h.05-.05ZM2401.24,1308.57c1.71.63,3.01,1.04,4.23,1.32.42.04.99.12,1.56.23.22.04.44.09.66.14,28.87,6.61,66.97-.88,93.34-10.2.34-.14.69-.28,1.05-.4,44.89-15.38,107.64-104.84,140.72-246.08,32.26-137.75,16.85-245.65-15.04-281.05-.56-.62-1.07-1.27-1.53-1.96-4.59-5.63-35.55-41.76-82.03-51.98-25.69-6.04-58.96,17.28-91.49,63.87-36.14,51.77-66.54,125.13-85.62,206.55h0c-39.29,167.77-14.33,300.58,33.64,319.36.17.07.34.13.5.21ZM2350.05,985.01h.05-.05Z"/>
        <path class="cls-10" d="M2464.68,1123.68c-.74,62.53,15.14,108.7,44.24,115.48,42.71,10.02,97.67-68.74,122.79-175.91,6.83-29.23,10.76-57.54,11.95-83.45,3.24-69.18-12.78-121.39-43.85-128.65-42.75-10.02-97.71,68.74-122.79,175.87-8.05,34.26-12.03,67.3-12.34,96.66Z"/>
        <path class="cls-3" d="M2464.68,1123.68c1.71,4.81,2.71,7.53,2.71,7.53,0,0,41.31-174.2,96.66-200.5,55.35-26.3,79.6,49.1,79.6,49.1,3.24-69.18-12.78-121.39-43.85-128.65-42.75-10.02-97.71,68.74-122.79,175.87-8.05,34.26-12.03,67.3-12.34,96.66Z"/>
        <path d="M2516.11,1248.85c-3.11,0-6.19-.35-9.22-1.06-24.43-5.72-41.52-33.04-48.12-76.94-6.19-41.15-2.77-92.94,9.61-145.84,12.39-52.89,32.32-100.81,56.14-134.94,25.42-36.4,52.87-53.29,77.29-47.57,24.43,5.72,41.52,33.05,48.12,76.94,6.19,41.15,2.77,92.94-9.61,145.84-24.94,106.47-77.97,183.56-124.21,183.57ZM2592.33,859.14c-15.73,0-34.8,14.59-53.29,41.08-22.56,32.32-41.54,78.08-53.42,128.84h0c-11.89,50.76-15.21,100.18-9.35,139.16,5.37,35.71,18,58.43,34.65,62.33,33.16,7.77,86.17-58.41,112.14-169.3,11.89-50.76,15.21-100.18,9.34-139.16-5.37-35.71-18-58.43-34.65-62.33-1.76-.41-3.57-.62-5.43-.62ZM2477,1027.03h.05-.05Z"/>
        <path d="M2503.06,1210.98c-2.67,0-5.3-.3-7.91-.91-15.33-3.59-27.42-17.12-34.96-39.12-1.36-3.98.76-8.31,4.73-9.67,3.98-1.36,8.31.76,9.67,4.73,4.01,11.71,11.44,26.28,24.03,29.23,27.95,6.51,74.4-51.64,96.4-145.55,22-93.89,6.19-166.63-21.76-173.19-6.34-1.46-13.43.14-21.12,4.76-3.59,2.15-8.27,1-10.44-2.61-2.16-3.61-1-8.28,2.61-10.45,11.2-6.72,22.12-8.9,32.4-6.54,41.47,9.74,56.02,93.85,33.14,191.5-21.44,91.53-67.03,157.81-106.78,157.81Z"/>
        <path d="M2488.92,1332.69c-4.76,0-9.45-.53-14.07-1.62-71.45-16.73-96.52-161.78-57.08-330.2h0c18.36-78.4,47.92-149.43,83.22-200,37.66-53.96,78.4-79,114.55-70.51,71.46,16.73,96.52,161.77,57.08,330.2-18.36,78.4-47.92,149.43-83.22,200-32.85,47.07-68.01,72.13-100.48,72.13ZM2430.55,1003.87l12.78,2.99c-37.93,161.94-10.68,287.37,37.5,298.65,24.71,5.79,56.4-16.08,87.04-59.98,33.44-47.91,61.57-115.73,79.18-190.96,37.93-161.94,10.68-287.37-37.5-298.65-24.68-5.77-56.4,16.09-87.04,59.98-33.44,47.91-61.57,115.73-79.18,190.96l-12.78-2.99Z"/>
        <path d="M2554.34,1173.81c-3.51,0-6.66-2.43-7.43-5.99l-48.88-224.01c-.9-4.11,1.7-8.17,5.82-9.06,4.12-.88,8.16,1.71,9.06,5.82l48.88,224.01c.9,4.11-1.7,8.16-5.82,9.06-.55.12-1.09.18-1.63.18Z"/>
      </g>
      <path class="cls-5" d="M1292,231.14c138.14,139.33,441.87,42.97,441.87,42.97,210.26-112.63,370.55-101.39,370.55-101.39-37.24-57.63-162.96-91.54-304.21-99.64-124.62-7.13-261.32,5.91-359.91,40.48-79.73,31.68-117.14,67.48-134.29,91.15-11.6,15.97-14,26.43-14,26.43Z"/>
      <path class="cls-9" d="M1292,231.14c138.14,139.33,441.87,42.97,441.87,42.97,210.26-112.63,370.55-101.39,370.55-101.39-37.24-57.63-162.96-91.54-304.21-99.64,0,0,136.13,26.56,53.43,79.95-82.66,53.39-255.94,122.39-408.79,100.25-92.68-13.43-126.59-34.26-138.85-48.57-11.6,15.97-14,26.43-14,26.43Z"/>
      <path d="M1519.05,324.34c-85.34,0-177.23-18.11-239.47-80.88-4.23-4.26-5.98-10.4-4.63-16.25.69-3,18.53-74.19,158.89-129.92.22-.09.44-.17.66-.25,101.63-35.68,251.77-50.9,391.81-39.72,71.14,5.67,242.08,27.35,292.82,105.89,3.6,5.57,3.74,12.69.37,18.4-3.36,5.71-9.67,9.05-16.29,8.56-2.58-.16-159.05-8.85-361.07,99.36-.95.51-1.94.93-2.97,1.25-7.28,2.31-108.03,33.55-220.12,33.55ZM1312.81,226.76c127.94,114.06,392.16,37.79,414.31,31.11,149.4-79.7,273.25-98.24,335.47-102.09-45.6-31.59-131.89-55-239.07-63.55-135.33-10.8-279.79,3.66-377.1,37.74-92.81,36.92-124.06,79.03-133.62,96.79Z"/>
      <path d="M2108.99,569.95c59.26-78.18,133.09-144.93,216.95-195.63,8.38-5.01,16.56,7.04,8.58,12.91-39,27.21-75.27,58.13-108.16,92.44-32.53,33.73-63.04,70.69-88.39,109.93-13.38,19.74-42.41.23-28.98-19.66h0Z"/>
    </g>
  </g>
</svg>